<svg width="18" height="19" viewBox="0 0 18 19" fill="none" xmlns="http://www.w3.org/2000/svg">
<path fill-rule="evenodd" clip-rule="evenodd" d="M1.08333 0.833332C0.623096 0.833332 0.25 1.20643 0.25 1.66667C0.25 2.1269 0.623096 2.5 1.08333 2.5C1.69035 2.5 2.22066 2.94107 2.32984 3.56167L2.90141 6.81057L2.90192 6.81345L3.26813 8.86006C3.49716 10.1401 3.68006 11.1623 3.9113 11.9743C4.14977 12.8117 4.45884 13.5007 4.98376 14.083C5.3443 14.483 5.76614 14.8253 6.23364 15.0986C6.91088 15.4944 7.65747 15.6686 8.54511 15.7521C9.40987 15.8333 10.4817 15.8333 11.8319 15.8333H12.2424C12.8429 15.8333 13.338 15.8333 13.7459 15.8037C14.1708 15.7728 14.5575 15.7069 14.9327 15.5469C15.4799 15.3136 15.9591 14.9469 16.3221 14.479C16.5727 14.1559 16.7291 13.7998 16.8574 13.4019C16.9798 13.0222 17.0915 12.5541 17.2256 11.9918L17.2425 11.9209C17.4465 11.0662 17.6131 10.3679 17.6937 9.79772C17.7767 9.211 17.7858 8.65916 17.5969 8.12726C17.3313 7.3795 16.8086 6.74999 16.1246 6.33988C15.6428 6.05098 15.098 5.93794 14.4935 5.885C13.9033 5.83331 13.1638 5.83332 12.2512 5.83333H4.42175L3.9713 3.27289C3.72412 1.86787 2.51195 0.833332 1.08333 0.833332ZM12.2122 7.5C13.173 7.5 13.8393 7.50075 14.3481 7.54531C14.851 7.58935 15.1024 7.67027 15.2676 7.76929C15.628 7.98539 15.8934 8.31077 16.0264 8.68509C16.0843 8.84827 16.1108 9.08838 16.0435 9.56425C15.9751 10.0477 15.8276 10.6697 15.6118 11.5743C15.4684 12.1752 15.3713 12.5798 15.2711 12.8905C15.1746 13.1898 15.0921 13.3454 15.0052 13.4574C14.8193 13.6971 14.57 13.8897 14.2791 14.0137C14.139 14.0734 13.955 14.1174 13.6249 14.1414C13.2847 14.1662 12.8504 14.1667 12.2122 14.1667H11.874C10.4724 14.1667 9.47878 14.1658 8.70108 14.0927C7.93732 14.0209 7.45978 13.8847 7.0746 13.6596C6.75362 13.472 6.46605 13.2382 6.22168 12.9671C5.93152 12.6452 5.71522 12.2236 5.51424 11.5179C5.30866 10.7959 5.13956 9.8565 4.90092 8.52282L4.7179 7.5H12.2122Z" fill="#475367"/>
<path d="M7.75 17.2917C7.75 17.867 7.28363 18.3333 6.70833 18.3333C6.13304 18.3333 5.66667 17.867 5.66667 17.2917C5.66667 16.7164 6.13304 16.25 6.70833 16.25C7.28363 16.25 7.75 16.7164 7.75 17.2917Z" fill="#475367"/>
<path d="M14.2083 18.3333C14.7836 18.3333 15.25 17.867 15.25 17.2917C15.25 16.7164 14.7836 16.25 14.2083 16.25C13.633 16.25 13.1667 16.7164 13.1667 17.2917C13.1667 17.867 13.633 18.3333 14.2083 18.3333Z" fill="#475367"/>
</svg>
