<svg width="849" height="239" viewBox="0 0 849 239" fill="none" xmlns="http://www.w3.org/2000/svg">
<g filter="url(#filter0_bd_4_43641)">
<rect x="81.0232" y="81.7643" width="686.986" height="76.1418" rx="38.0709" fill="white" fill-opacity="0.5" shape-rendering="crispEdges"/>
<rect x="80.5232" y="81.2643" width="687.986" height="77.1418" rx="38.5709" stroke="white" shape-rendering="crispEdges"/>
</g>
<path d="M160.041 131.894C159.52 131.894 159.142 131.848 158.908 131.757C158.673 131.653 158.556 131.503 158.556 131.308C158.556 131.217 158.589 131.06 158.654 130.839L166.877 108.007C167.007 107.629 167.469 107.441 168.263 107.441H169.279C170.073 107.441 170.535 107.629 170.666 108.007L178.888 130.859C178.953 131.002 178.986 131.151 178.986 131.308C178.986 131.698 178.498 131.894 177.521 131.894H177.228C176.421 131.894 175.952 131.711 175.822 131.347L173.791 125.644H163.595L161.603 131.347C161.486 131.711 161.024 131.894 160.216 131.894H160.041ZM172.853 123.007L169.22 112.675C169.116 112.388 169.031 112.063 168.966 111.698C168.901 111.334 168.843 110.982 168.791 110.644H168.712C168.556 111.516 168.38 112.193 168.185 112.675L164.552 123.007H172.853ZM191.906 131.894C191.411 131.894 191.053 131.835 190.832 131.718C190.611 131.588 190.5 131.392 190.5 131.132V108.222C190.5 107.701 190.969 107.441 191.906 107.441H192.629C192.993 107.441 193.28 107.493 193.488 107.597C193.71 107.701 193.905 107.87 194.074 108.105L205.168 124.843L206.203 126.796V108.222C206.203 107.701 206.659 107.441 207.57 107.441H207.844C208.755 107.441 209.211 107.701 209.211 108.222V131.132C209.211 131.392 209.1 131.588 208.879 131.718C208.658 131.835 208.312 131.894 207.844 131.894H207.141C206.815 131.894 206.555 131.855 206.359 131.776C206.164 131.698 206.014 131.575 205.91 131.405L194.465 114.14L193.527 112.343V131.132C193.527 131.64 193.065 131.894 192.141 131.894H191.906ZM222.566 132.03C219.688 132.03 217.546 131.282 216.14 129.784C214.747 128.274 214.05 125.969 214.05 122.87C214.05 119.797 214.734 117.467 216.101 115.878C217.468 114.276 219.48 113.476 222.136 113.476C224.506 113.476 226.29 114.244 227.487 115.78C228.698 117.317 229.304 119.569 229.304 122.538C229.304 122.668 229.232 122.851 229.089 123.085C228.959 123.306 228.796 123.508 228.601 123.691C228.418 123.86 228.262 123.944 228.132 123.944H217.175C217.318 125.885 217.813 127.304 218.659 128.202C219.519 129.088 220.808 129.53 222.527 129.53C223.49 129.53 224.317 129.413 225.007 129.179C225.71 128.944 226.387 128.658 227.038 128.319C227.103 128.293 227.201 128.248 227.331 128.183C227.461 128.118 227.553 128.085 227.605 128.085C227.748 128.085 227.911 128.202 228.093 128.437C228.288 128.658 228.451 128.912 228.581 129.198C228.724 129.472 228.796 129.674 228.796 129.804C228.796 130.09 228.51 130.409 227.937 130.761C227.364 131.112 226.596 131.412 225.632 131.659C224.681 131.907 223.659 132.03 222.566 132.03ZM226.198 121.444C226.198 117.799 224.812 115.976 222.038 115.976C219.056 115.976 217.435 117.799 217.175 121.444H226.198ZM237.873 131.894C237.027 131.894 236.565 131.711 236.487 131.347L231.916 114.882C231.786 114.517 231.721 114.29 231.721 114.198C231.721 113.808 232.255 113.612 233.323 113.612C234.156 113.612 234.618 113.795 234.709 114.159L237.639 125.273C237.691 125.455 237.86 126.197 238.147 127.499C238.212 127.851 238.336 128.43 238.518 129.237C238.778 127.636 239.065 126.301 239.377 125.234L242.248 114.198C242.34 113.808 242.795 113.612 243.616 113.612H243.85C244.644 113.612 245.1 113.808 245.217 114.198L248.108 125.234C248.42 126.379 248.681 127.506 248.889 128.612C248.902 128.691 248.935 128.886 248.987 129.198C249.351 127.271 249.618 125.976 249.787 125.312L252.717 114.159C252.808 113.795 253.277 113.612 254.123 113.612C255.048 113.612 255.51 113.808 255.51 114.198C255.51 114.342 255.478 114.498 255.412 114.667L250.744 131.347C250.666 131.711 250.211 131.894 249.377 131.894H248.323C247.502 131.894 247.053 131.711 246.975 131.347L244.182 120.331C244.013 119.615 243.843 118.717 243.674 117.636C243.505 118.769 243.329 119.661 243.147 120.312L240.315 131.347C240.237 131.711 239.768 131.894 238.909 131.894H237.873ZM272.552 131.894C271.692 131.894 271.223 131.711 271.145 131.347L265.208 108.534C265.195 108.469 265.175 108.385 265.149 108.28C265.123 108.176 265.11 108.098 265.11 108.046C265.11 107.864 265.234 107.72 265.481 107.616C265.729 107.499 266.106 107.441 266.614 107.441H266.946C267.324 107.441 267.636 107.486 267.884 107.577C268.131 107.668 268.281 107.812 268.333 108.007L272.747 125.097C272.825 125.435 272.994 126.301 273.255 127.694C273.32 128.098 273.359 128.313 273.372 128.339C273.658 127.141 273.938 126.028 274.212 124.999L278.411 108.046C278.502 107.642 278.951 107.441 279.759 107.441H280.305C281.126 107.441 281.581 107.642 281.673 108.046L285.969 125.136C286.1 125.644 286.223 126.249 286.341 126.952C286.471 127.655 286.549 128.118 286.575 128.339C286.848 127.219 287.128 126.119 287.415 125.038L291.614 108.007C291.705 107.629 292.161 107.441 292.981 107.441H293.196C294.186 107.441 294.68 107.642 294.68 108.046C294.68 108.137 294.648 108.3 294.583 108.534L288.587 131.347C288.483 131.711 288.014 131.894 287.18 131.894H285.774C284.928 131.894 284.466 131.711 284.387 131.347L280.579 117.206L279.876 112.694L279.134 117.206L275.344 131.347C275.266 131.711 274.811 131.894 273.977 131.894H272.552ZM301.59 132.03C299.819 132.03 298.387 131.594 297.293 130.722C296.199 129.849 295.652 128.554 295.652 126.835C295.652 125.025 296.206 123.665 297.312 122.753C298.419 121.829 299.767 121.236 301.355 120.976C302.957 120.702 304.897 120.546 307.176 120.507V118.866C307.176 117.994 306.876 117.297 306.277 116.776C305.691 116.243 304.721 115.976 303.367 115.976C302.339 115.976 301.434 116.099 300.652 116.347C299.884 116.581 299.161 116.868 298.484 117.206C298.198 117.349 298.022 117.421 297.957 117.421C297.801 117.421 297.625 117.31 297.43 117.089C297.247 116.855 297.085 116.594 296.941 116.308C296.811 116.021 296.746 115.813 296.746 115.683C296.746 115.383 297.052 115.058 297.664 114.706C298.289 114.355 299.103 114.062 300.105 113.827C301.108 113.593 302.156 113.476 303.25 113.476C305.424 113.476 307.111 113.951 308.309 114.901C309.506 115.852 310.105 117.187 310.105 118.905V126.698C310.105 128.209 310.171 129.303 310.301 129.98C310.444 130.644 310.516 131.008 310.516 131.073C310.516 131.36 310.294 131.568 309.852 131.698C309.422 131.816 309.018 131.874 308.641 131.874C308.328 131.874 308.094 131.698 307.937 131.347C307.794 130.995 307.651 130.487 307.508 129.823L307.43 129.433C306.714 130.227 305.867 130.859 304.891 131.327C303.927 131.796 302.827 132.03 301.59 132.03ZM301.746 129.511C302.892 129.511 303.868 129.303 304.676 128.886C305.483 128.469 306.316 127.877 307.176 127.109V123.007C305.457 123.02 304.044 123.092 302.937 123.222C301.831 123.352 300.861 123.684 300.027 124.218C299.194 124.739 298.777 125.553 298.777 126.659C298.777 127.584 299.025 128.293 299.52 128.788C300.027 129.27 300.77 129.511 301.746 129.511ZM317.562 139.062C316.806 139.062 316.429 138.873 316.429 138.495C316.429 138.404 316.481 138.215 316.585 137.929L319.495 130.859L313.421 114.648C313.408 114.595 313.388 114.524 313.362 114.433C313.336 114.329 313.323 114.25 313.323 114.198C313.323 114.016 313.447 113.873 313.694 113.769C313.942 113.665 314.319 113.612 314.827 113.612H315.101C315.882 113.612 316.344 113.795 316.487 114.159L320.023 123.573C320.335 124.394 320.706 125.559 321.136 127.069H321.194L321.605 125.78C321.67 125.585 321.78 125.253 321.937 124.784C322.093 124.303 322.236 123.899 322.366 123.573L325.823 114.159C325.941 113.795 326.416 113.612 327.249 113.612H327.366C328.278 113.612 328.734 113.808 328.734 114.198C328.734 114.29 328.701 114.446 328.636 114.667L319.73 138.339C319.521 138.821 318.974 139.062 318.089 139.062H317.562ZM346.83 131.894C346.348 131.894 345.996 131.835 345.775 131.718C345.554 131.588 345.443 131.392 345.443 131.132V110.175H338.763C338.516 110.175 338.34 110.09 338.236 109.921C338.132 109.752 338.08 109.491 338.08 109.14V108.573C338.08 108.209 338.132 107.948 338.236 107.792C338.34 107.623 338.516 107.538 338.763 107.538H355.052C355.3 107.538 355.475 107.623 355.58 107.792C355.684 107.948 355.736 108.209 355.736 108.573V109.14C355.736 109.491 355.684 109.752 355.58 109.921C355.475 110.09 355.3 110.175 355.052 110.175H348.509V131.132C348.509 131.64 348.041 131.894 347.103 131.894H346.83ZM365.302 132.03C362.684 132.03 360.686 131.249 359.305 129.687C357.938 128.111 357.255 125.826 357.255 122.831C357.255 119.836 357.951 117.532 359.344 115.917C360.738 114.29 362.723 113.476 365.302 113.476C367.854 113.476 369.807 114.283 371.161 115.898C372.515 117.499 373.192 119.81 373.192 122.831C373.192 125.839 372.522 128.124 371.18 129.687C369.852 131.249 367.893 132.03 365.302 132.03ZM365.204 129.53C366.897 129.53 368.147 128.984 368.954 127.89C369.761 126.783 370.165 125.077 370.165 122.773C370.165 120.455 369.761 118.743 368.954 117.636C368.147 116.529 366.897 115.976 365.204 115.976C363.524 115.976 362.287 116.529 361.493 117.636C360.699 118.73 360.302 120.442 360.302 122.773C360.302 125.09 360.692 126.796 361.473 127.89C362.268 128.984 363.511 129.53 365.204 129.53ZM395.761 132.03C392.271 132.03 389.615 131.028 387.792 129.023C385.969 127.004 385.058 123.957 385.058 119.882C385.058 111.497 388.801 107.304 396.288 107.304C397.382 107.304 398.443 107.421 399.472 107.655C400.5 107.877 401.334 108.157 401.972 108.495C402.61 108.834 402.929 109.159 402.929 109.472C402.929 109.667 402.857 109.928 402.714 110.253C402.584 110.579 402.428 110.865 402.245 111.112C402.063 111.36 401.9 111.484 401.757 111.484C401.692 111.484 401.51 111.399 401.21 111.23C400.533 110.865 399.823 110.559 399.081 110.312C398.339 110.064 397.434 109.941 396.366 109.941C393.424 109.941 391.327 110.754 390.077 112.382C388.827 113.997 388.202 116.392 388.202 119.569C388.202 122.564 388.782 124.954 389.941 126.737C391.112 128.508 393.131 129.394 395.995 129.394C396.868 129.394 397.708 129.355 398.515 129.276C399.335 129.185 399.986 129.075 400.468 128.944V121.933H396.405C396.158 121.933 395.976 121.855 395.859 121.698C395.754 121.529 395.702 121.262 395.702 120.898V120.331C395.702 119.967 395.754 119.706 395.859 119.55C395.976 119.381 396.158 119.296 396.405 119.296H402.48C402.844 119.296 403.111 119.381 403.28 119.55C403.45 119.706 403.534 119.967 403.534 120.331V129.53C403.534 130.429 402.805 131.073 401.347 131.464C399.888 131.842 398.027 132.03 395.761 132.03ZM416.655 132.03C413.777 132.03 411.635 131.282 410.229 129.784C408.836 128.274 408.139 125.969 408.139 122.87C408.139 119.797 408.823 117.467 410.19 115.878C411.557 114.276 413.569 113.476 416.225 113.476C418.595 113.476 420.379 114.244 421.577 115.78C422.787 117.317 423.393 119.569 423.393 122.538C423.393 122.668 423.321 122.851 423.178 123.085C423.048 123.306 422.885 123.508 422.69 123.691C422.508 123.86 422.351 123.944 422.221 123.944H411.264C411.407 125.885 411.902 127.304 412.748 128.202C413.608 129.088 414.897 129.53 416.616 129.53C417.579 129.53 418.406 129.413 419.096 129.179C419.799 128.944 420.476 128.658 421.127 128.319C421.192 128.293 421.29 128.248 421.42 128.183C421.55 128.118 421.642 128.085 421.694 128.085C421.837 128.085 422 128.202 422.182 128.437C422.377 128.658 422.54 128.912 422.67 129.198C422.814 129.472 422.885 129.674 422.885 129.804C422.885 130.09 422.599 130.409 422.026 130.761C421.453 131.112 420.685 131.412 419.721 131.659C418.771 131.907 417.748 132.03 416.655 132.03ZM420.287 121.444C420.287 117.799 418.901 115.976 416.127 115.976C413.146 115.976 411.524 117.799 411.264 121.444H420.287ZM432.978 132.03C431.819 132.03 430.784 131.679 429.873 130.976C428.961 130.273 428.505 129.029 428.505 127.245V116.171H426.767C426.52 116.171 426.337 116.093 426.22 115.937C426.116 115.767 426.064 115.5 426.064 115.136V114.706C426.064 114.342 426.116 114.081 426.22 113.925C426.337 113.756 426.52 113.671 426.767 113.671H428.505L428.916 110.038C428.942 109.53 429.313 109.276 430.029 109.276H430.361C430.725 109.276 430.992 109.342 431.162 109.472C431.331 109.589 431.416 109.778 431.416 110.038V113.671H434.326C434.573 113.671 434.749 113.756 434.853 113.925C434.97 114.081 435.029 114.342 435.029 114.706V115.136C435.029 115.5 434.97 115.767 434.853 115.937C434.749 116.093 434.573 116.171 434.326 116.171H431.416V126.972C431.416 127.922 431.578 128.586 431.904 128.964C432.242 129.342 432.698 129.53 433.271 129.53C433.714 129.53 434.052 129.504 434.287 129.452C434.534 129.4 434.697 129.374 434.775 129.374C434.983 129.374 435.153 129.582 435.283 129.999C435.426 130.416 435.498 130.748 435.498 130.995C435.498 131.685 434.658 132.03 432.978 132.03ZM444.692 132.03C443.533 132.03 442.498 131.679 441.587 130.976C440.675 130.273 440.219 129.029 440.219 127.245V116.171H438.481C438.234 116.171 438.052 116.093 437.934 115.937C437.83 115.767 437.778 115.5 437.778 115.136V114.706C437.778 114.342 437.83 114.081 437.934 113.925C438.052 113.756 438.234 113.671 438.481 113.671H440.219L440.63 110.038C440.656 109.53 441.027 109.276 441.743 109.276H442.075C442.44 109.276 442.706 109.342 442.876 109.472C443.045 109.589 443.13 109.778 443.13 110.038V113.671H446.04C446.287 113.671 446.463 113.756 446.567 113.925C446.684 114.081 446.743 114.342 446.743 114.706V115.136C446.743 115.5 446.684 115.767 446.567 115.937C446.463 116.093 446.287 116.171 446.04 116.171H443.13V126.972C443.13 127.922 443.292 128.586 443.618 128.964C443.956 129.342 444.412 129.53 444.985 129.53C445.428 129.53 445.766 129.504 446.001 129.452C446.248 129.4 446.411 129.374 446.489 129.374C446.697 129.374 446.867 129.582 446.997 129.999C447.14 130.416 447.212 130.748 447.212 130.995C447.212 131.685 446.372 132.03 444.692 132.03ZM452.617 109.296C451.693 109.296 451.23 109.042 451.23 108.534V106.484C451.23 105.976 451.693 105.722 452.617 105.722H453.027C453.965 105.722 454.434 105.976 454.434 106.484V108.534C454.434 109.042 453.965 109.296 453.027 109.296H452.617ZM452.754 131.894C451.829 131.894 451.367 131.64 451.367 131.132V114.374C451.367 113.866 451.829 113.612 452.754 113.612H452.891C453.828 113.612 454.297 113.866 454.297 114.374V131.132C454.297 131.64 453.828 131.894 452.891 131.894H452.754ZM461.616 131.894C461.122 131.894 460.763 131.835 460.542 131.718C460.321 131.588 460.21 131.392 460.21 131.132V118.944C460.21 117.434 460.138 116.347 459.995 115.683C459.852 115.006 459.78 114.635 459.78 114.569C459.78 114.283 459.995 114.081 460.425 113.964C460.868 113.834 461.284 113.769 461.675 113.769C462 113.769 462.241 113.944 462.398 114.296C462.554 114.648 462.665 115.006 462.73 115.37C462.808 115.735 462.86 115.969 462.886 116.073C463.615 115.253 464.455 114.615 465.405 114.159C466.369 113.704 467.339 113.476 468.316 113.476C470.086 113.476 471.467 113.977 472.456 114.98C473.459 115.969 473.96 117.336 473.96 119.081V131.132C473.96 131.392 473.849 131.588 473.628 131.718C473.407 131.835 473.055 131.894 472.573 131.894H472.417C471.948 131.894 471.603 131.835 471.382 131.718C471.161 131.588 471.05 131.392 471.05 131.132V119.374C471.05 118.306 470.737 117.48 470.112 116.894C469.5 116.295 468.635 115.995 467.515 115.995C466.734 115.995 465.946 116.217 465.152 116.659C464.37 117.089 463.693 117.681 463.12 118.437V131.132C463.12 131.392 463.01 131.588 462.788 131.718C462.567 131.835 462.222 131.894 461.753 131.894H461.616ZM485.147 139.198C482.933 139.198 481.182 138.853 479.893 138.163C478.604 137.473 477.959 136.386 477.959 134.901C477.959 133.886 478.252 133 478.838 132.245C479.424 131.49 480.186 130.924 481.123 130.546L481.162 130.468C480.707 130.116 480.355 129.713 480.108 129.257C479.873 128.801 479.756 128.261 479.756 127.636C479.756 126.125 480.407 124.915 481.709 124.003C480.733 123.534 479.991 122.877 479.483 122.03C478.975 121.171 478.721 120.207 478.721 119.14C478.721 118.072 478.981 117.109 479.502 116.249C480.036 115.39 480.817 114.713 481.846 114.218C482.875 113.723 484.112 113.476 485.557 113.476C486.325 113.476 487.009 113.541 487.608 113.671H493.916C494.164 113.671 494.34 113.756 494.444 113.925C494.561 114.081 494.62 114.342 494.62 114.706V115.136C494.62 115.5 494.561 115.767 494.444 115.937C494.34 116.093 494.164 116.171 493.916 116.171C493.044 116.171 492.237 116.138 491.495 116.073L491.455 116.132C491.755 116.549 491.976 117.017 492.12 117.538C492.276 118.046 492.354 118.58 492.354 119.14C492.354 120.207 492.087 121.171 491.553 122.03C491.032 122.89 490.258 123.567 489.229 124.062C488.213 124.556 486.976 124.804 485.518 124.804C484.424 124.843 483.597 125.045 483.037 125.409C482.491 125.774 482.217 126.373 482.217 127.206C482.217 127.818 482.412 128.287 482.803 128.612C483.207 128.938 483.708 129.166 484.307 129.296C484.906 129.426 485.739 129.55 486.807 129.667L487.823 129.784C488.903 129.928 489.808 130.123 490.537 130.37C491.267 130.618 491.866 131.028 492.334 131.601C492.816 132.174 493.057 132.961 493.057 133.964C493.057 135.644 492.386 136.933 491.045 137.831C489.704 138.743 487.738 139.198 485.147 139.198ZM485.518 122.499C486.794 122.499 487.81 122.239 488.565 121.718C489.32 121.197 489.698 120.344 489.698 119.159C489.698 116.92 488.304 115.8 485.518 115.8C482.771 115.8 481.397 116.92 481.397 119.159C481.397 120.344 481.768 121.197 482.51 121.718C483.265 122.239 484.268 122.499 485.518 122.499ZM485.518 136.835C487.133 136.835 488.33 136.62 489.112 136.191C489.893 135.774 490.284 135.136 490.284 134.276C490.284 133.717 490.075 133.28 489.659 132.968C489.242 132.668 488.728 132.454 488.116 132.323C487.517 132.206 486.722 132.095 485.733 131.991C485.056 131.913 484.496 131.842 484.053 131.776C483.623 131.711 483.226 131.62 482.862 131.503C481.325 132.154 480.557 133.098 480.557 134.335C480.557 136.002 482.211 136.835 485.518 136.835ZM511.778 132.03C510.502 132.03 509.311 131.894 508.204 131.62C507.11 131.334 506.231 130.995 505.567 130.605C504.916 130.201 504.591 129.836 504.591 129.511C504.591 129.329 504.662 129.088 504.805 128.788C504.962 128.489 505.137 128.222 505.333 127.987C505.528 127.753 505.684 127.636 505.802 127.636C505.906 127.636 506.134 127.74 506.485 127.948C507.292 128.365 508.093 128.71 508.887 128.984C509.682 129.257 510.645 129.394 511.778 129.394C512.663 129.394 513.451 129.224 514.141 128.886C514.831 128.547 515.365 128.072 515.743 127.46C516.134 126.835 516.329 126.119 516.329 125.312C516.329 124.452 516.094 123.743 515.626 123.183C515.17 122.61 514.61 122.161 513.946 121.835C513.295 121.497 512.344 121.08 511.094 120.585C509.74 120.064 508.666 119.582 507.872 119.14C507.091 118.684 506.42 118.026 505.86 117.167C505.313 116.308 505.04 115.168 505.04 113.749C505.04 112.512 505.359 111.405 505.997 110.429C506.635 109.439 507.54 108.671 508.712 108.124C509.884 107.577 511.231 107.304 512.755 107.304C513.445 107.304 514.233 107.401 515.118 107.597C516.003 107.779 516.759 108.033 517.384 108.359C518.022 108.684 518.341 109.042 518.341 109.433C518.341 109.602 518.269 109.836 518.126 110.136C517.996 110.422 517.839 110.683 517.657 110.917C517.475 111.151 517.331 111.269 517.227 111.269C517.11 111.269 516.876 111.171 516.524 110.976C515.938 110.663 515.359 110.416 514.786 110.234C514.213 110.038 513.516 109.941 512.696 109.941C511.355 109.941 510.268 110.286 509.434 110.976C508.614 111.666 508.204 112.629 508.204 113.866C508.204 114.609 508.386 115.22 508.751 115.702C509.115 116.184 509.578 116.568 510.137 116.855C510.697 117.141 511.479 117.473 512.481 117.851C512.546 117.864 512.696 117.916 512.93 118.007C514.311 118.541 515.437 119.062 516.309 119.569C517.195 120.064 517.943 120.78 518.555 121.718C519.18 122.655 519.493 123.853 519.493 125.312C519.493 126.679 519.174 127.87 518.536 128.886C517.911 129.901 517.012 130.683 515.841 131.23C514.682 131.763 513.328 132.03 511.778 132.03ZM528.687 132.03C527.529 132.03 526.493 131.679 525.582 130.976C524.671 130.273 524.215 129.029 524.215 127.245V116.171H522.477C522.229 116.171 522.047 116.093 521.93 115.937C521.825 115.767 521.773 115.5 521.773 115.136V114.706C521.773 114.342 521.825 114.081 521.93 113.925C522.047 113.756 522.229 113.671 522.477 113.671H524.215L524.625 110.038C524.651 109.53 525.022 109.276 525.738 109.276H526.07C526.435 109.276 526.702 109.342 526.871 109.472C527.04 109.589 527.125 109.778 527.125 110.038V113.671H530.035C530.283 113.671 530.458 113.756 530.562 113.925C530.68 114.081 530.738 114.342 530.738 114.706V115.136C530.738 115.5 530.68 115.767 530.562 115.937C530.458 116.093 530.283 116.171 530.035 116.171H527.125V126.972C527.125 127.922 527.288 128.586 527.613 128.964C527.952 129.342 528.408 129.53 528.98 129.53C529.423 129.53 529.762 129.504 529.996 129.452C530.243 129.4 530.406 129.374 530.484 129.374C530.693 129.374 530.862 129.582 530.992 129.999C531.135 130.416 531.207 130.748 531.207 130.995C531.207 131.685 530.367 132.03 528.687 132.03ZM540.46 132.03C538.689 132.03 537.303 131.536 536.3 130.546C535.297 129.543 534.796 128.163 534.796 126.405V114.374C534.796 113.866 535.265 113.612 536.202 113.612H536.339C537.263 113.612 537.726 113.866 537.726 114.374V126.132C537.726 127.2 538.032 128.033 538.644 128.632C539.269 129.218 540.141 129.511 541.261 129.511C542.042 129.511 542.823 129.296 543.605 128.866C544.386 128.424 545.063 127.825 545.636 127.069V114.374C545.636 113.866 546.098 113.612 547.023 113.612H547.159C548.097 113.612 548.566 113.866 548.566 114.374V126.698C548.566 128.209 548.631 129.303 548.761 129.98C548.891 130.644 548.956 131.008 548.956 131.073C548.956 131.36 548.741 131.568 548.312 131.698C547.882 131.816 547.478 131.874 547.101 131.874C546.775 131.874 546.534 131.692 546.378 131.327C546.222 130.95 546.105 130.566 546.027 130.175C545.961 129.784 545.916 129.537 545.89 129.433C545.161 130.253 544.314 130.891 543.351 131.347C542.4 131.803 541.437 132.03 540.46 132.03ZM556.471 131.894C555.989 131.894 555.638 131.835 555.416 131.718C555.195 131.588 555.084 131.392 555.084 131.132V116.171H553.698C553.229 116.171 552.995 115.826 552.995 115.136V114.706C552.995 114.016 553.229 113.671 553.698 113.671H555.084V110.37C555.084 108.547 555.534 107.297 556.432 106.62C557.343 105.93 558.385 105.585 559.557 105.585C561.25 105.585 562.096 105.937 562.096 106.64C562.096 106.757 562.064 106.952 561.998 107.226C561.946 107.486 561.862 107.72 561.745 107.929C561.64 108.137 561.517 108.241 561.373 108.241C561.295 108.241 561.133 108.215 560.885 108.163C560.638 108.111 560.299 108.085 559.87 108.085C559.479 108.085 559.147 108.144 558.873 108.261C558.613 108.378 558.398 108.625 558.229 109.003C558.073 109.381 557.995 109.928 557.995 110.644V113.671H561.022C561.269 113.671 561.445 113.756 561.549 113.925C561.666 114.081 561.725 114.342 561.725 114.706V115.136C561.725 115.5 561.666 115.767 561.549 115.937C561.445 116.093 561.269 116.171 561.022 116.171H557.995V131.132C557.995 131.392 557.884 131.588 557.662 131.718C557.441 131.835 557.096 131.894 556.627 131.894H556.471ZM567.76 131.894C567.278 131.894 566.927 131.835 566.705 131.718C566.484 131.588 566.373 131.392 566.373 131.132V116.171H564.987C564.518 116.171 564.284 115.826 564.284 115.136V114.706C564.284 114.016 564.518 113.671 564.987 113.671H566.373V110.37C566.373 108.547 566.823 107.297 567.721 106.62C568.633 105.93 569.674 105.585 570.846 105.585C572.539 105.585 573.385 105.937 573.385 106.64C573.385 106.757 573.353 106.952 573.287 107.226C573.235 107.486 573.151 107.72 573.034 107.929C572.929 108.137 572.806 108.241 572.662 108.241C572.584 108.241 572.422 108.215 572.174 108.163C571.927 108.111 571.588 108.085 571.159 108.085C570.768 108.085 570.436 108.144 570.162 108.261C569.902 108.378 569.687 108.625 569.518 109.003C569.362 109.381 569.284 109.928 569.284 110.644V113.671H572.311C572.558 113.671 572.734 113.756 572.838 113.925C572.955 114.081 573.014 114.342 573.014 114.706V115.136C573.014 115.5 572.955 115.767 572.838 115.937C572.734 116.093 572.558 116.171 572.311 116.171H569.284V131.132C569.284 131.392 569.173 131.588 568.952 131.718C568.73 131.835 568.385 131.894 567.916 131.894H567.76ZM589.509 132.03C587.738 132.03 586.305 131.594 585.212 130.722C584.118 129.849 583.571 128.554 583.571 126.835C583.571 125.025 584.124 123.665 585.231 122.753C586.338 121.829 587.686 121.236 589.274 120.976C590.876 120.702 592.816 120.546 595.094 120.507V118.866C595.094 117.994 594.795 117.297 594.196 116.776C593.61 116.243 592.64 115.976 591.286 115.976C590.257 115.976 589.352 116.099 588.571 116.347C587.803 116.581 587.08 116.868 586.403 117.206C586.117 117.349 585.941 117.421 585.876 117.421C585.719 117.421 585.544 117.31 585.348 117.089C585.166 116.855 585.003 116.594 584.86 116.308C584.73 116.021 584.665 115.813 584.665 115.683C584.665 115.383 584.971 115.058 585.583 114.706C586.208 114.355 587.022 114.062 588.024 113.827C589.027 113.593 590.075 113.476 591.169 113.476C593.343 113.476 595.029 113.951 596.227 114.901C597.425 115.852 598.024 117.187 598.024 118.905V126.698C598.024 128.209 598.089 129.303 598.219 129.98C598.363 130.644 598.434 131.008 598.434 131.073C598.434 131.36 598.213 131.568 597.77 131.698C597.341 131.816 596.937 131.874 596.559 131.874C596.247 131.874 596.012 131.698 595.856 131.347C595.713 130.995 595.57 130.487 595.427 129.823L595.348 129.433C594.632 130.227 593.786 130.859 592.809 131.327C591.846 131.796 590.746 132.03 589.509 132.03ZM589.665 129.511C590.811 129.511 591.787 129.303 592.594 128.886C593.402 128.469 594.235 127.877 595.094 127.109V123.007C593.376 123.02 591.963 123.092 590.856 123.222C589.749 123.352 588.779 123.684 587.946 124.218C587.113 124.739 586.696 125.553 586.696 126.659C586.696 127.584 586.943 128.293 587.438 128.788C587.946 129.27 588.688 129.511 589.665 129.511ZM608.82 132.03C607.661 132.03 606.626 131.679 605.715 130.976C604.803 130.273 604.348 129.029 604.348 127.245V116.171H602.609C602.362 116.171 602.18 116.093 602.062 115.937C601.958 115.767 601.906 115.5 601.906 115.136V114.706C601.906 114.342 601.958 114.081 602.062 113.925C602.18 113.756 602.362 113.671 602.609 113.671H604.348L604.758 110.038C604.784 109.53 605.155 109.276 605.871 109.276H606.203C606.568 109.276 606.835 109.342 607.004 109.472C607.173 109.589 607.258 109.778 607.258 110.038V113.671H610.168C610.415 113.671 610.591 113.756 610.695 113.925C610.812 114.081 610.871 114.342 610.871 114.706V115.136C610.871 115.5 610.812 115.767 610.695 115.937C610.591 116.093 610.415 116.171 610.168 116.171H607.258V126.972C607.258 127.922 607.421 128.586 607.746 128.964C608.085 129.342 608.54 129.53 609.113 129.53C609.556 129.53 609.895 129.504 610.129 129.452C610.376 129.4 610.539 129.374 610.617 129.374C610.825 129.374 610.995 129.582 611.125 129.999C611.268 130.416 611.34 130.748 611.34 130.995C611.34 131.685 610.5 132.03 608.82 132.03ZM624.905 131.835C624.54 131.835 624.273 131.75 624.104 131.581C623.935 131.412 623.85 131.151 623.85 130.8V108.573C623.85 108.209 623.935 107.948 624.104 107.792C624.273 107.623 624.54 107.538 624.905 107.538H637.014C637.261 107.538 637.437 107.616 637.541 107.773C637.659 107.929 637.717 108.196 637.717 108.573V109.14C637.717 109.491 637.659 109.752 637.541 109.921C637.437 110.09 637.261 110.175 637.014 110.175H626.916V118.085H635.979C636.226 118.085 636.402 118.17 636.506 118.339C636.623 118.508 636.682 118.775 636.682 119.14V119.667C636.682 120.032 636.623 120.299 636.506 120.468C636.402 120.624 636.226 120.702 635.979 120.702H626.916V129.198H637.053C637.3 129.198 637.476 129.283 637.58 129.452C637.698 129.609 637.756 129.869 637.756 130.234V130.8C637.756 131.151 637.698 131.412 637.58 131.581C637.476 131.75 637.3 131.835 637.053 131.835H624.905ZM646.912 132.03C645.141 132.03 643.709 131.594 642.615 130.722C641.521 129.849 640.974 128.554 640.974 126.835C640.974 125.025 641.528 123.665 642.634 122.753C643.741 121.829 645.089 121.236 646.677 120.976C648.279 120.702 650.219 120.546 652.498 120.507V118.866C652.498 117.994 652.198 117.297 651.599 116.776C651.013 116.243 650.043 115.976 648.689 115.976C647.66 115.976 646.755 116.099 645.974 116.347C645.206 116.581 644.483 116.868 643.806 117.206C643.52 117.349 643.344 117.421 643.279 117.421C643.123 117.421 642.947 117.31 642.752 117.089C642.569 116.855 642.406 116.594 642.263 116.308C642.133 116.021 642.068 115.813 642.068 115.683C642.068 115.383 642.374 115.058 642.986 114.706C643.611 114.355 644.425 114.062 645.427 113.827C646.43 113.593 647.478 113.476 648.572 113.476C650.746 113.476 652.433 113.951 653.63 114.901C654.828 115.852 655.427 117.187 655.427 118.905V126.698C655.427 128.209 655.492 129.303 655.623 129.98C655.766 130.644 655.837 131.008 655.837 131.073C655.837 131.36 655.616 131.568 655.173 131.698C654.744 131.816 654.34 131.874 653.962 131.874C653.65 131.874 653.416 131.698 653.259 131.347C653.116 130.995 652.973 130.487 652.83 129.823L652.752 129.433C652.035 130.227 651.189 130.859 650.212 131.327C649.249 131.796 648.149 132.03 646.912 132.03ZM647.068 129.511C648.214 129.511 649.19 129.303 649.998 128.886C650.805 128.469 651.638 127.877 652.498 127.109V123.007C650.779 123.02 649.366 123.092 648.259 123.222C647.153 123.352 646.183 123.684 645.349 124.218C644.516 124.739 644.099 125.553 644.099 126.659C644.099 127.584 644.347 128.293 644.841 128.788C645.349 129.27 646.091 129.511 647.068 129.511ZM664.759 132.167C663.782 132.167 662.871 132.043 662.024 131.796C661.178 131.549 660.501 131.249 659.993 130.898C659.498 130.533 659.251 130.214 659.251 129.941C659.251 129.81 659.316 129.602 659.446 129.316C659.589 129.029 659.752 128.775 659.934 128.554C660.13 128.319 660.305 128.202 660.462 128.202C660.501 128.202 660.618 128.267 660.813 128.398C661.334 128.736 661.881 129.023 662.454 129.257C663.04 129.491 663.736 129.609 664.544 129.609C666.809 129.609 667.942 128.671 667.942 126.796C667.942 126.262 667.831 125.813 667.61 125.448C667.402 125.084 667.044 124.765 666.536 124.491C666.041 124.205 665.358 123.931 664.485 123.671C663.235 123.306 662.259 122.89 661.555 122.421C660.865 121.952 660.377 121.405 660.091 120.78C659.804 120.142 659.661 119.374 659.661 118.476C659.661 117.512 659.902 116.646 660.384 115.878C660.878 115.11 661.562 114.511 662.434 114.081C663.32 113.651 664.316 113.437 665.423 113.437C666.191 113.437 666.927 113.508 667.63 113.651C668.346 113.795 668.919 113.984 669.348 114.218C669.791 114.439 670.012 114.674 670.012 114.921C670.012 115.103 669.947 115.351 669.817 115.663C669.7 115.963 669.55 116.23 669.368 116.464C669.186 116.685 669.023 116.796 668.88 116.796C668.854 116.796 668.691 116.718 668.391 116.562C668.092 116.392 667.708 116.243 667.239 116.112C666.783 115.969 666.275 115.898 665.716 115.898C664.83 115.898 664.094 116.099 663.509 116.503C662.936 116.894 662.649 117.421 662.649 118.085C662.649 118.866 662.858 119.491 663.274 119.96C663.691 120.429 664.381 120.813 665.344 121.112C666.829 121.568 667.962 122.024 668.743 122.48C669.524 122.935 670.078 123.495 670.403 124.159C670.742 124.81 670.911 125.67 670.911 126.737C670.911 127.753 670.637 128.678 670.091 129.511C669.544 130.331 668.802 130.982 667.864 131.464C666.927 131.933 665.891 132.167 664.759 132.167ZM682.586 132.03C679.708 132.03 677.566 131.282 676.16 129.784C674.767 128.274 674.07 125.969 674.07 122.87C674.07 119.797 674.754 117.467 676.121 115.878C677.488 114.276 679.5 113.476 682.156 113.476C684.526 113.476 686.31 114.244 687.508 115.78C688.719 117.317 689.324 119.569 689.324 122.538C689.324 122.668 689.253 122.851 689.109 123.085C688.979 123.306 688.816 123.508 688.621 123.691C688.439 123.86 688.282 123.944 688.152 123.944H677.195C677.338 125.885 677.833 127.304 678.68 128.202C679.539 129.088 680.828 129.53 682.547 129.53C683.51 129.53 684.337 129.413 685.027 129.179C685.73 128.944 686.407 128.658 687.059 128.319C687.124 128.293 687.221 128.248 687.352 128.183C687.482 128.118 687.573 128.085 687.625 128.085C687.768 128.085 687.931 128.202 688.113 128.437C688.309 128.658 688.471 128.912 688.602 129.198C688.745 129.472 688.816 129.674 688.816 129.804C688.816 130.09 688.53 130.409 687.957 130.761C687.384 131.112 686.616 131.412 685.652 131.659C684.702 131.907 683.68 132.03 682.586 132.03ZM686.219 121.444C686.219 117.799 684.832 115.976 682.059 115.976C679.077 115.976 677.456 117.799 677.195 121.444H686.219Z" fill="white"/>
<defs>
<filter id="filter0_bd_4_43641" x="0.0231934" y="0.764282" width="848.986" height="238.142" filterUnits="userSpaceOnUse" color-interpolation-filters="sRGB">
<feFlood flood-opacity="0" result="BackgroundImageFix"/>
<feGaussianBlur in="BackgroundImageFix" stdDeviation="2.5"/>
<feComposite in2="SourceAlpha" operator="in" result="effect1_backgroundBlur_4_43641"/>
<feColorMatrix in="SourceAlpha" type="matrix" values="0 0 0 0 0 0 0 0 0 0 0 0 0 0 0 0 0 0 127 0" result="hardAlpha"/>
<feOffset/>
<feGaussianBlur stdDeviation="40"/>
<feComposite in2="hardAlpha" operator="out"/>
<feColorMatrix type="matrix" values="0 0 0 0 1 0 0 0 0 1 0 0 0 0 1 0 0 0 0.6 0"/>
<feBlend mode="normal" in2="effect1_backgroundBlur_4_43641" result="effect2_dropShadow_4_43641"/>
<feBlend mode="normal" in="SourceGraphic" in2="effect2_dropShadow_4_43641" result="shape"/>
</filter>
</defs>
</svg>
