<svg width="30" height="27" viewBox="0 0 30 27" fill="none" xmlns="http://www.w3.org/2000/svg">
<path fill-rule="evenodd" clip-rule="evenodd" d="M14.6004 0.164062L5.96841 0.684635C3.91265 0.808612 2.09886 2.02531 1.26231 3.84151L0.50796 5.47924C-0.305706 7.24575 -0.0650257 9.29881 1.13703 10.8453L1.49394 11.3045L1.98563 21.7422C2.11981 24.5906 4.55217 26.8333 7.5072 26.8333H21.6937C24.6487 26.8333 27.0811 24.5906 27.2153 21.7422L27.698 11.4954C29.0125 10.3096 29.497 8.45984 28.8659 6.78536L27.8814 4.17284C27.1301 2.17927 25.2258 0.804846 23.0317 0.672524L14.6004 0.164062ZM4.74642 21.6211L4.32797 12.7383C5.51163 12.8728 6.73335 12.6076 7.76694 11.9427L7.91046 11.8504C8.69084 11.3484 9.69016 11.2884 10.529 11.6931L12.1286 12.4648C13.6847 13.2155 15.5162 13.2155 17.0723 12.4648L18.6719 11.6931C19.5107 11.2884 20.51 11.3484 21.2904 11.8504L21.4339 11.9427C22.4675 12.6076 23.6893 12.8728 24.8729 12.7383L24.4545 21.6211C24.3874 23.0453 23.1712 24.1667 21.6937 24.1667H18.8658L19.1451 20.9325C19.3667 18.367 17.2685 16.1667 14.6004 16.1667C11.9324 16.1667 9.83417 18.367 10.0557 20.9325L10.335 24.1667H7.5072C6.02969 24.1667 4.81351 23.0453 4.74642 21.6211ZM22.9669 9.72393C23.7579 10.2328 24.7884 10.2328 25.5794 9.72393C26.266 9.28227 26.5507 8.44495 26.2687 7.69667L25.2841 5.08415C24.9085 4.08737 23.9563 3.40016 22.8593 3.334L14.6004 2.83593L6.1408 3.34611C5.11292 3.4081 4.20603 4.01644 3.78775 4.92455L3.0334 6.56227C2.62657 7.44553 2.74691 8.47206 3.34794 9.24531L3.80156 9.82892C4.56428 10.2299 5.50173 10.195 6.23395 9.72393L6.37747 9.63161C7.98304 8.59879 10.039 8.47528 11.765 9.30796L13.3645 10.0797C14.1425 10.455 15.0583 10.455 15.8364 10.0797L17.4359 9.30796C19.1618 8.47528 21.2179 8.59879 22.8234 9.63161L22.9669 9.72393ZM16.3911 20.7111L16.0926 24.1667H13.1083L12.8098 20.7111C12.7225 19.7003 13.5492 18.8333 14.6004 18.8333C15.6517 18.8333 16.4784 19.7003 16.3911 20.7111Z" fill="#0C356A"/>
</svg>
