<svg width="83" height="34" viewBox="0 0 83 34" fill="none" xmlns="http://www.w3.org/2000/svg">
<path fill-rule="evenodd" clip-rule="evenodd" d="M23.6034 18.952L12.7177 0.0974121L1.83196 18.952H0L7.86001 24.6627L4.85776 33.9027L12.7178 28.192L20.5778 33.9027L17.5755 24.6627L25.4355 18.952H23.6034Z" fill="#0174BE"/>
<path d="M30.6848 23.5V11.8636H35.1394C35.9803 11.8636 36.6792 11.9962 37.236 12.2614C37.7966 12.5227 38.2151 12.8807 38.4917 13.3352C38.772 13.7898 38.9121 14.3049 38.9121 14.8807C38.9121 15.3542 38.8212 15.7595 38.6394 16.0966C38.4576 16.4299 38.2132 16.7008 37.9064 16.9091C37.5996 17.1174 37.2568 17.267 36.878 17.358V17.4716C37.2909 17.4943 37.6867 17.6212 38.0655 17.8523C38.4481 18.0795 38.7606 18.4015 39.003 18.8182C39.2454 19.2348 39.3667 19.7386 39.3667 20.3295C39.3667 20.9318 39.2208 21.4735 38.9292 21.9545C38.6375 22.4318 38.1981 22.8087 37.611 23.0852C37.0239 23.3617 36.2852 23.5 35.3951 23.5H30.6848ZM32.7928 21.7386H35.0598C35.825 21.7386 36.3761 21.5928 36.7132 21.3011C37.0542 21.0057 37.2246 20.6269 37.2246 20.1648C37.2246 19.8201 37.1394 19.5095 36.9689 19.233C36.7985 18.9527 36.556 18.733 36.2417 18.5739C35.9273 18.411 35.5523 18.3295 35.1167 18.3295H32.7928V21.7386ZM32.7928 16.8125H34.878C35.2417 16.8125 35.5693 16.7462 35.861 16.6136C36.1526 16.4773 36.3818 16.286 36.5485 16.0398C36.7189 15.7898 36.8042 15.4943 36.8042 15.1534C36.8042 14.7027 36.6451 14.3314 36.3269 14.0398C36.0125 13.7481 35.5447 13.6023 34.9235 13.6023H32.7928V16.8125ZM43.6209 23.6761C43.0679 23.6761 42.5698 23.5777 42.1266 23.3807C41.6872 23.1799 41.3387 22.8845 41.0811 22.4943C40.8274 22.1042 40.7005 21.6231 40.7005 21.0511C40.7005 20.5587 40.7914 20.1515 40.9732 19.8295C41.155 19.5076 41.4031 19.25 41.7175 19.0568C42.0319 18.8636 42.3861 18.7178 42.78 18.6193C43.1777 18.517 43.5887 18.4432 44.013 18.3977C44.5243 18.3447 44.9391 18.2973 45.2573 18.2557C45.5755 18.2102 45.8065 18.142 45.9505 18.0511C46.0982 17.9564 46.1721 17.8106 46.1721 17.6136V17.5795C46.1721 17.1515 46.0452 16.8201 45.7914 16.5852C45.5376 16.3504 45.1721 16.233 44.6948 16.233C44.191 16.233 43.7914 16.3428 43.4959 16.5625C43.2042 16.7822 43.0073 17.0417 42.905 17.3409L40.9846 17.0682C41.1361 16.5379 41.3861 16.0947 41.7346 15.7386C42.083 15.3788 42.5092 15.1098 43.013 14.9318C43.5167 14.75 44.0736 14.6591 44.6834 14.6591C45.1039 14.6591 45.5224 14.7083 45.9391 14.8068C46.3558 14.9053 46.7364 15.0682 47.0811 15.2955C47.4258 15.5189 47.7024 15.8239 47.9107 16.2102C48.1228 16.5966 48.2289 17.0795 48.2289 17.6591V23.5H46.2516V22.3011H46.1834C46.0584 22.5436 45.8823 22.7708 45.655 22.983C45.4315 23.1913 45.1493 23.3598 44.8084 23.4886C44.4713 23.6136 44.0755 23.6761 43.6209 23.6761ZM44.155 22.1648C44.5679 22.1648 44.9258 22.0833 45.2289 21.9205C45.5319 21.7538 45.7649 21.5341 45.9277 21.2614C46.0944 20.9886 46.1777 20.6913 46.1777 20.3693V19.3409C46.1133 19.3939 46.0035 19.4432 45.8482 19.4886C45.6967 19.5341 45.5262 19.5739 45.3368 19.608C45.1474 19.642 44.9599 19.6723 44.7743 19.6989C44.5887 19.7254 44.4277 19.7481 44.2914 19.767C43.9846 19.8087 43.7099 19.8769 43.4675 19.9716C43.2251 20.0663 43.0338 20.1989 42.8936 20.3693C42.7535 20.536 42.6834 20.7519 42.6834 21.017C42.6834 21.3958 42.8217 21.6818 43.0982 21.875C43.3747 22.0682 43.727 22.1648 44.155 22.1648ZM51.263 26.7727C50.9827 26.7727 50.7232 26.75 50.4846 26.7045C50.2497 26.6629 50.0622 26.6136 49.9221 26.5568L50.3993 24.9545C50.6986 25.0417 50.9656 25.0833 51.2005 25.0795C51.4353 25.0758 51.6417 25.0019 51.8198 24.858C52.0016 24.7178 52.155 24.483 52.28 24.1534L52.4561 23.6818L49.2914 14.7727H51.4732L53.4846 21.3636H53.5755L55.5925 14.7727H57.78L54.2857 24.5568C54.1228 25.0189 53.9069 25.4148 53.638 25.7443C53.369 26.0777 53.0395 26.3314 52.6493 26.5057C52.263 26.6837 51.8008 26.7727 51.263 26.7727ZM61.4647 23.6761C60.9116 23.6761 60.4135 23.5777 59.9703 23.3807C59.531 23.1799 59.1825 22.8845 58.9249 22.4943C58.6711 22.1042 58.5442 21.6231 58.5442 21.0511C58.5442 20.5587 58.6351 20.1515 58.8169 19.8295C58.9988 19.5076 59.2469 19.25 59.5613 19.0568C59.8757 18.8636 60.2298 18.7178 60.6238 18.6193C61.0215 18.517 61.4325 18.4432 61.8567 18.3977C62.3681 18.3447 62.7828 18.2973 63.101 18.2557C63.4192 18.2102 63.6503 18.142 63.7942 18.0511C63.9419 17.9564 64.0158 17.8106 64.0158 17.6136V17.5795C64.0158 17.1515 63.8889 16.8201 63.6351 16.5852C63.3813 16.3504 63.0158 16.233 62.5385 16.233C62.0347 16.233 61.6351 16.3428 61.3397 16.5625C61.048 16.7822 60.851 17.0417 60.7488 17.3409L58.8283 17.0682C58.9798 16.5379 59.2298 16.0947 59.5783 15.7386C59.9268 15.3788 60.3529 15.1098 60.8567 14.9318C61.3605 14.75 61.9173 14.6591 62.5272 14.6591C62.9476 14.6591 63.3662 14.7083 63.7828 14.8068C64.1995 14.9053 64.5802 15.0682 64.9249 15.2955C65.2696 15.5189 65.5461 15.8239 65.7544 16.2102C65.9666 16.5966 66.0726 17.0795 66.0726 17.6591V23.5H64.0953V22.3011H64.0272C63.9022 22.5436 63.726 22.7708 63.4988 22.983C63.2753 23.1913 62.9931 23.3598 62.6522 23.4886C62.315 23.6136 61.9192 23.6761 61.4647 23.6761ZM61.9988 22.1648C62.4116 22.1648 62.7696 22.0833 63.0726 21.9205C63.3757 21.7538 63.6086 21.5341 63.7715 21.2614C63.9382 20.9886 64.0215 20.6913 64.0215 20.3693V19.3409C63.9571 19.3939 63.8472 19.4432 63.6919 19.4886C63.5404 19.5341 63.37 19.5739 63.1806 19.608C62.9912 19.642 62.8037 19.6723 62.6181 19.6989C62.4325 19.7254 62.2715 19.7481 62.1351 19.767C61.8283 19.8087 61.5537 19.8769 61.3113 19.9716C61.0688 20.0663 60.8775 20.1989 60.7374 20.3693C60.5972 20.536 60.5272 20.7519 60.5272 21.017C60.5272 21.3958 60.6654 21.6818 60.9419 21.875C61.2185 22.0682 61.5707 22.1648 61.9988 22.1648ZM72.5613 14.7727V16.3636H67.4022V14.7727H72.5613ZM68.6919 23.5V13.9489C68.6919 13.3617 68.8132 12.8731 69.0556 12.483C69.3018 12.0928 69.6313 11.8011 70.0442 11.608C70.4571 11.4148 70.9154 11.3182 71.4192 11.3182C71.7753 11.3182 72.0916 11.3466 72.3681 11.4034C72.6446 11.4602 72.8491 11.5114 72.9817 11.5568L72.5726 13.1477C72.4855 13.1212 72.3757 13.0947 72.2431 13.0682C72.1105 13.0379 71.9628 13.0227 71.7999 13.0227C71.4173 13.0227 71.1465 13.1155 70.9874 13.3011C70.8321 13.483 70.7544 13.7443 70.7544 14.0852V23.5H68.6919ZM75.4505 26.7727C75.1702 26.7727 74.9107 26.75 74.6721 26.7045C74.4372 26.6629 74.2497 26.6136 74.1096 26.5568L74.5868 24.9545C74.8861 25.0417 75.1531 25.0833 75.388 25.0795C75.6228 25.0758 75.8292 25.0019 76.0073 24.858C76.1891 24.7178 76.3425 24.483 76.4675 24.1534L76.6436 23.6818L73.4789 14.7727H75.6607L77.6721 21.3636H77.763L79.78 14.7727H81.9675L78.4732 24.5568C78.3103 25.0189 78.0944 25.4148 77.8255 25.7443C77.5565 26.0777 77.227 26.3314 76.8368 26.5057C76.4505 26.6837 75.9883 26.7727 75.4505 26.7727Z" fill="#0C356A"/>
</svg>
